<?xml version="1.0" encoding="UTF-8" standalone="no"?>
<!DOCTYPE svg PUBLIC "-//W3C//DTD SVG 1.1//EN"
 "http://www.w3.org/Graphics/SVG/1.1/DTD/svg11.dtd">
<!-- Generated by graphviz version 2.38.0 (20140413.2041)
 -->
<!-- Title: models_diagram Pages: 1 -->
<svg width="726pt" height="551pt"
 viewBox="0.00 0.00 726.34 551.00" xmlns="http://www.w3.org/2000/svg" xmlns:xlink="http://www.w3.org/1999/xlink">
<g id="graph0" class="graph" transform="scale(1 1) rotate(0) translate(4 547)">
<title>models_diagram</title>
<polygon fill="none" stroke="none" points="-4,4 -4,-547 722.343,-547 722.343,4 -4,4"/>
<!-- _diagram_info -->
<g id="node1" class="node"><title>_diagram_info</title>
<text text-anchor="start" x="8" y="-446.6" font-family="Times,serif" font-size="13.00">Models diagram</text>
<text text-anchor="start" x="8" y="-432.6" font-family="Times,serif" font-size="13.00">Date: Feb 28 2017 &#45; 20:28</text>
<text text-anchor="start" x="8" y="-418.6" font-family="Times,serif" font-size="13.00">Migration version: 20170228221754</text>
<text text-anchor="start" x="8" y="-404.6" font-family="Times,serif" font-size="13.00">Generated by RailRoady 1.5.2</text>
<text text-anchor="start" x="8" y="-390.6" font-family="Times,serif" font-size="13.00">http://railroady.prestonlee.com</text>
</g>
<!-- Pokemon -->
<g id="node2" class="node"><title>Pokemon</title>
<path fill="none" stroke="black" d="M204,-158.5C204,-158.5 424,-158.5 424,-158.5 430,-158.5 436,-164.5 436,-170.5 436,-170.5 436,-252.5 436,-252.5 436,-258.5 430,-264.5 424,-264.5 424,-264.5 204,-264.5 204,-264.5 198,-264.5 192,-258.5 192,-252.5 192,-252.5 192,-170.5 192,-170.5 192,-164.5 198,-158.5 204,-158.5"/>
<text text-anchor="middle" x="314" y="-249.3" font-family="Times,serif" font-size="14.00">Pokemon</text>
<polyline fill="none" stroke="black" points="192,-241.5 436,-241.5 "/>
<text text-anchor="start" x="200" y="-226.3" font-family="Times,serif" font-size="14.00">id :integer</text>
<text text-anchor="start" x="200" y="-211.3" font-family="Times,serif" font-size="14.00">name :character varying</text>
<text text-anchor="start" x="200" y="-196.3" font-family="Times,serif" font-size="14.00">description :text</text>
<text text-anchor="start" x="200" y="-181.3" font-family="Times,serif" font-size="14.00">created_at :timestamp without time zone</text>
<text text-anchor="start" x="200" y="-166.3" font-family="Times,serif" font-size="14.00">updated_at :timestamp without time zone</text>
</g>
<!-- Caught -->
<g id="node3" class="node"><title>Caught</title>
<path fill="none" stroke="black" d="M279,-0.5C279,-0.5 499,-0.5 499,-0.5 505,-0.5 511,-6.5 511,-12.5 511,-12.5 511,-109.5 511,-109.5 511,-115.5 505,-121.5 499,-121.5 499,-121.5 279,-121.5 279,-121.5 273,-121.5 267,-115.5 267,-109.5 267,-109.5 267,-12.5 267,-12.5 267,-6.5 273,-0.5 279,-0.5"/>
<text text-anchor="middle" x="389" y="-106.3" font-family="Times,serif" font-size="14.00">Caught</text>
<polyline fill="none" stroke="black" points="267,-98.5 511,-98.5 "/>
<text text-anchor="start" x="275" y="-83.3" font-family="Times,serif" font-size="14.00">id :integer</text>
<text text-anchor="start" x="275" y="-68.3" font-family="Times,serif" font-size="14.00">level :integer</text>
<text text-anchor="start" x="275" y="-53.3" font-family="Times,serif" font-size="14.00">user_id :integer</text>
<text text-anchor="start" x="275" y="-38.3" font-family="Times,serif" font-size="14.00">pokemon_id :integer</text>
<text text-anchor="start" x="275" y="-23.3" font-family="Times,serif" font-size="14.00">created_at :timestamp without time zone</text>
<text text-anchor="start" x="275" y="-8.3" font-family="Times,serif" font-size="14.00">updated_at :timestamp without time zone</text>
</g>
<!-- Pokemon&#45;&gt;Caught -->
<g id="edge1" class="edge"><title>Pokemon&#45;&gt;Caught</title>
<path fill="none" stroke="#0dc92d" d="M344.111,-150.881C347.444,-144.281 350.858,-137.521 354.242,-130.82"/>
<ellipse fill="none" stroke="#0dc92d" cx="342.245" cy="-154.574" rx="4.00002" ry="4.00002"/>
<polygon fill="#0dc92d" stroke="#0dc92d" points="354.32,-130.666 362.845,-123.768 356.574,-126.203 358.829,-121.74 358.829,-121.74 358.829,-121.74 356.574,-126.203 354.812,-119.711 354.32,-130.666 354.32,-130.666"/>
</g>
<!-- ApplicationRecord -->
<g id="node4" class="node"><title>ApplicationRecord</title>
<ellipse fill="none" stroke="black" cx="641" cy="-422" rx="77.1866" ry="18"/>
<text text-anchor="middle" x="641" y="-418.3" font-family="Times,serif" font-size="14.00">ApplicationRecord</text>
</g>
<!-- User -->
<g id="node5" class="node"><title>User</title>
<path fill="none" stroke="black" d="M244.5,-301.5C244.5,-301.5 533.5,-301.5 533.5,-301.5 539.5,-301.5 545.5,-307.5 545.5,-313.5 545.5,-313.5 545.5,-530.5 545.5,-530.5 545.5,-536.5 539.5,-542.5 533.5,-542.5 533.5,-542.5 244.5,-542.5 244.5,-542.5 238.5,-542.5 232.5,-536.5 232.5,-530.5 232.5,-530.5 232.5,-313.5 232.5,-313.5 232.5,-307.5 238.5,-301.5 244.5,-301.5"/>
<text text-anchor="middle" x="389" y="-527.3" font-family="Times,serif" font-size="14.00">User</text>
<polyline fill="none" stroke="black" points="232.5,-519.5 545.5,-519.5 "/>
<text text-anchor="start" x="240.5" y="-504.3" font-family="Times,serif" font-size="14.00">id :integer</text>
<text text-anchor="start" x="240.5" y="-489.3" font-family="Times,serif" font-size="14.00">email :character varying</text>
<text text-anchor="start" x="240.5" y="-474.3" font-family="Times,serif" font-size="14.00">encrypted_password :character varying</text>
<text text-anchor="start" x="240.5" y="-459.3" font-family="Times,serif" font-size="14.00">reset_password_token :character varying</text>
<text text-anchor="start" x="240.5" y="-444.3" font-family="Times,serif" font-size="14.00">reset_password_sent_at :timestamp without time zone</text>
<text text-anchor="start" x="240.5" y="-429.3" font-family="Times,serif" font-size="14.00">remember_created_at :timestamp without time zone</text>
<text text-anchor="start" x="240.5" y="-414.3" font-family="Times,serif" font-size="14.00">sign_in_count :integer</text>
<text text-anchor="start" x="240.5" y="-399.3" font-family="Times,serif" font-size="14.00">current_sign_in_at :timestamp without time zone</text>
<text text-anchor="start" x="240.5" y="-384.3" font-family="Times,serif" font-size="14.00">last_sign_in_at :timestamp without time zone</text>
<text text-anchor="start" x="240.5" y="-369.3" font-family="Times,serif" font-size="14.00">current_sign_in_ip :inet</text>
<text text-anchor="start" x="240.5" y="-354.3" font-family="Times,serif" font-size="14.00">last_sign_in_ip :inet</text>
<text text-anchor="start" x="240.5" y="-339.3" font-family="Times,serif" font-size="14.00">created_at :timestamp without time zone</text>
<text text-anchor="start" x="240.5" y="-324.3" font-family="Times,serif" font-size="14.00">updated_at :timestamp without time zone</text>
<text text-anchor="start" x="240.5" y="-309.3" font-family="Times,serif" font-size="14.00">role :integer</text>
</g>
<!-- User&#45;&gt;Pokemon -->
<g id="edge3" class="edge"><title>User&#45;&gt;Pokemon</title>
<path fill="none" stroke="#92ab5b" d="M342.513,-291.767C340.406,-285.908 338.338,-280.16 336.34,-274.605"/>
<polygon fill="#92ab5b" stroke="#92ab5b" points="342.531,-291.815 341.681,-302.748 344.223,-296.52 345.916,-301.225 345.916,-301.225 345.916,-301.225 344.223,-296.52 350.15,-299.702 342.531,-291.815 342.531,-291.815"/>
<polygon fill="#92ab5b" stroke="#92ab5b" points="336.208,-274.239 337.058,-263.306 334.516,-269.534 332.824,-264.83 332.824,-264.83 332.824,-264.83 334.516,-269.534 328.589,-266.353 336.208,-274.239 336.208,-274.239"/>
</g>
<!-- User&#45;&gt;Caught -->
<g id="edge2" class="edge"><title>User&#45;&gt;Caught</title>
<path fill="none" stroke="#b76abc" d="M440.661,-293.204C451.644,-250.024 456.814,-201.698 445,-158 442.515,-148.807 438.906,-139.59 434.7,-130.701"/>
<ellipse fill="none" stroke="#b76abc" cx="439.569" cy="-297.337" rx="4.00001" ry="4.00001"/>
<polygon fill="#b76abc" stroke="#b76abc" points="434.604,-130.51 434.145,-119.553 432.363,-126.04 430.122,-121.57 430.122,-121.57 430.122,-121.57 432.363,-126.04 426.099,-123.587 434.604,-130.51 434.604,-130.51"/>
</g>
</g>
</svg>
